<?xml version="1.0" encoding="UTF-8" standalone="no"?>
    <svg xmlns:dc="http://purl.org/dc/elements/1.1/" xmlns:cc="http://creativecommons.org/ns#" xmlns:rdf="http://www.w3.org/1999/02/22-rdf-syntax-ns#" xmlns:svg="http://www.w3.org/2000/svg" xmlns="http://www.w3.org/2000/svg" viewBox="0 0 266.66666 266.66666" height="266.66666" width="266.66666" xml:space="preserve" id="svg2" version="1.1">
        <metadata id="metadata8">
            <rdf:RDF>
                <cc:Work rdf:about="">
                    <dc:format>image/svg+xml</dc:format>
                    <dc:type rdf:resource="http://purl.org/dc/dcmitype/StillImage" />
                </cc:Work>
            </rdf:RDF>
        </metadata>
        <defs id="defs6" />
        <g transform="matrix(1.3333333,0,0,-1.3333333,0,266.66667)" id="g10">
            <g transform="scale(0.1)" id="g12">
                <path id="path14" style="fill:#268bd2;fill-opacity:1;fill-rule:nonzero;stroke:none" d="m 494.664,485.109 c 11.063,-14.777 35.063,-12.918 55.363,3.711 44.321,35.071 86.789,62.75 168.032,62.75 153.23,0 275.054,-95.98 457.851,-95.98 140.33,-1.852 228.94,51.672 278.8,123.691 38.76,55.379 57.23,131.071 57.23,190.16 0,83.079 -48.01,138.457 -131.11,138.457 -79.38,0 -114.43,-40.628 -118.15,-99.699 -1.84,-23.988 -1.84,-70.148 -16.62,-92.301 -14.77,-24.007 -42.46,-31.398 -75.68,-31.398 -86.78,0 -190.177,70.141 -304.638,70.141 h -16.609 l 744.037,601.879 c 12.91,9.26 18.46,31.4 3.7,42.49 l -114.48,134.77 c -20.31,18.45 -35.08,16.6 -55.39,0 -38.76,-31.39 -75.68,-62.78 -155.08,-62.78 -129.25,0 -267.69,81.23 -448.627,81.23 -129.238,0 -201.25,-48 -251.105,-99.69 -47.993,-51.69 -81.227,-134.78 -81.227,-214.15 0,-81.24 48.008,-132.93 127.398,-132.93 72,0 114.461,40.6 114.461,97.84 0,33.23 1.836,62.76 16.606,84.94 12.929,22.14 46.172,42.45 92.32,42.45 71.992,0 208.624,-49.84 293.554,-49.84 h 5.55 L 387.563,682.648 C 372.797,671.59 372.797,645.73 382.035,632.809 Z M 0,999.988 c 0,551.492 448.512,999.992 1000.01,999.992 551.48,0 999.99,-448.5 999.99,-999.992 C 2000,448.5 1551.49,0 1000.01,0 448.512,0 0,448.5 0,999.988 v 0" />
                <!-- old fill #231f20 -->
            </g>
        </g>
    </svg>