<?xml version="1.0" encoding="UTF-8" standalone="no"?>
<!-- Created with Inkscape (http://www.inkscape.org/) -->

<svg
   xmlns:dc="http://purl.org/dc/elements/1.1/"
   xmlns:cc="http://creativecommons.org/ns#"
   xmlns:rdf="http://www.w3.org/1999/02/22-rdf-syntax-ns#"
   xmlns:svg="http://www.w3.org/2000/svg"
   xmlns="http://www.w3.org/2000/svg"
   xmlns:sodipodi="http://sodipodi.sourceforge.net/DTD/sodipodi-0.dtd"
   xmlns:inkscape="http://www.inkscape.org/namespaces/inkscape"
   width="2500"
   height="1250"
   viewBox="0 0 2500 1250"
   id="svg4388"
   version="1.1"
   inkscape:version="0.91 r13725"
   sodipodi:docname="banner.svg"
   inkscape:export-xdpi="72"
   inkscape:export-ydpi="72">
  <defs
     id="defs4390" />
  <sodipodi:namedview
     id="base"
     pagecolor="#ffffff"
     bordercolor="#666666"
     borderopacity="1.0"
     inkscape:pageopacity="0.0"
     inkscape:pageshadow="2"
     inkscape:zoom="0.11313708"
     inkscape:cx="517.0482"
     inkscape:cy="161.07143"
     inkscape:document-units="px"
     inkscape:current-layer="layer1"
     showgrid="false"
     units="px"
     inkscape:window-width="1366"
     inkscape:window-height="677"
     inkscape:window-x="0"
     inkscape:window-y="1"
     inkscape:window-maximized="1"
     inkscape:snap-page="true"
     inkscape:object-paths="true"
     inkscape:snap-intersection-paths="true"
     inkscape:object-nodes="true"
     inkscape:snap-smooth-nodes="true"
     inkscape:snap-midpoints="true"
     inkscape:snap-global="true"
     inkscape:snap-bbox="true"
     inkscape:bbox-paths="true"
     inkscape:bbox-nodes="true"
     inkscape:snap-bbox-edge-midpoints="true"
     inkscape:snap-bbox-midpoints="true"
     fit-margin-top="0"
     fit-margin-left="0"
     fit-margin-right="0"
     fit-margin-bottom="0" />
  <metadata
     id="metadata4393">
    <rdf:RDF>
      <cc:Work
         rdf:about="">
        <dc:format>image/svg+xml</dc:format>
        <dc:type
           rdf:resource="http://purl.org/dc/dcmitype/StillImage" />
        <dc:title />
      </cc:Work>
    </rdf:RDF>
  </metadata>
  <g
     inkscape:label="Layer 1"
     inkscape:groupmode="layer"
     id="layer1"
     transform="translate(0,197.63788)">
    <rect
       style="opacity:1;fill:#ffffff;fill-opacity:1;fill-rule:nonzero;stroke:none;stroke-width:5;stroke-linecap:round;stroke-linejoin:round;stroke-miterlimit:4;stroke-dasharray:none;stroke-opacity:1"
       id="rect5031"
       width="2500"
       height="1250"
       x="0"
       y="-197.63788" />
    <text
       xml:space="preserve"
       style="font-style:normal;font-weight:normal;font-size:19.93603706px;line-height:125%;font-family:sans-serif;letter-spacing:0px;word-spacing:0px;fill:#000000;fill-opacity:1;stroke:none;stroke-width:1px;stroke-linecap:butt;stroke-linejoin:miter;stroke-opacity:1"
       x="-145.98349"
       y="828.28833"
       id="text4343-0"
       sodipodi:linespacing="125%"><tspan
         sodipodi:role="line"
         id="tspan4345-1"
         x="-145.98349"
         y="828.28833" /></text>
    <text
       xml:space="preserve"
       style="font-style:normal;font-weight:normal;font-size:515.92950439px;line-height:125%;font-family:sans-serif;letter-spacing:0px;word-spacing:0px;fill:#000000;fill-opacity:1;stroke:none;stroke-width:1px;stroke-linecap:butt;stroke-linejoin:miter;stroke-opacity:1"
       x="-463.2002"
       y="587.89459"
       id="text4347-8"
       sodipodi:linespacing="125%"><tspan
         sodipodi:role="line"
         id="tspan4349-1"
         x="-463.2002"
         y="587.89459" /></text>
    <flowRoot
       xml:space="preserve"
       id="flowRoot4351-0"
       style="font-style:normal;font-weight:normal;font-size:19.93603706px;line-height:125%;font-family:sans-serif;letter-spacing:0px;word-spacing:0px;fill:#000000;fill-opacity:1;stroke:none;stroke-width:1px;stroke-linecap:butt;stroke-linejoin:miter;stroke-opacity:1"><flowRegion
         id="flowRegion4353-6"><rect
           id="rect4355-0"
           width="11.419355"
           height="19.983871"
           x="-101.50885"
           y="1271.2222" /></flowRegion><flowPara
         id="flowPara4357-9" /></flowRoot>    <flowRoot
       xml:space="preserve"
       id="flowRoot4359-9"
       style="font-style:normal;font-weight:normal;font-size:19.93603706px;line-height:125%;font-family:sans-serif;letter-spacing:0px;word-spacing:0px;fill:#000000;fill-opacity:1;stroke:none;stroke-width:1px;stroke-linecap:butt;stroke-linejoin:miter;stroke-opacity:1"><flowRegion
         id="flowRegion4361-5"><rect
           id="rect4363-9"
           width="550.98395"
           height="679.45166"
           x="-478.3476"
           y="997.15765" /></flowRegion><flowPara
         id="flowPara4365-4" /></flowRoot>    <text
       xml:space="preserve"
       style="font-style:normal;font-weight:normal;font-size:19.93603706px;line-height:125%;font-family:sans-serif;letter-spacing:0px;word-spacing:0px;fill:#000000;fill-opacity:1;stroke:none;stroke-width:1px;stroke-linecap:butt;stroke-linejoin:miter;stroke-opacity:1"
       x="195.39427"
       y="465.13556"
       id="text4367-6"
       sodipodi:linespacing="125%"><tspan
         sodipodi:role="line"
         id="tspan4369-9"
         x="195.39427"
         y="465.13556" /></text>
    <text
       xml:space="preserve"
       style="font-style:normal;font-weight:normal;font-size:19.93603706px;line-height:125%;font-family:sans-serif;letter-spacing:0px;word-spacing:0px;fill:#000000;fill-opacity:1;stroke:none;stroke-width:1px;stroke-linecap:butt;stroke-linejoin:miter;stroke-opacity:1"
       x="-155.75093"
       y="151.1033"
       id="text4371-1"
       sodipodi:linespacing="125%"><tspan
         sodipodi:role="line"
         id="tspan4373-5"
         x="-155.75093"
         y="151.1033" /></text>
    <text
       xml:space="preserve"
       style="font-style:normal;font-weight:normal;font-size:8.30085373px;line-height:125%;font-family:sans-serif;letter-spacing:0px;word-spacing:0px;fill:#000000;fill-opacity:1;stroke:none;stroke-width:1px;stroke-linecap:butt;stroke-linejoin:miter;stroke-opacity:1"
       x="290.29691"
       y="606.80847"
       id="text4343"
       sodipodi:linespacing="125%"><tspan
         sodipodi:role="line"
         id="tspan4345"
         x="290.29691"
         y="606.80847" /></text>
    <text
       xml:space="preserve"
       style="font-style:normal;font-weight:normal;font-size:214.81980896px;line-height:125%;font-family:sans-serif;letter-spacing:0px;word-spacing:0px;fill:#000000;fill-opacity:1;stroke:none;stroke-width:1px;stroke-linecap:butt;stroke-linejoin:miter;stroke-opacity:1"
       x="158.216"
       y="506.71469"
       id="text4347"
       sodipodi:linespacing="125%"><tspan
         sodipodi:role="line"
         id="tspan4349"
         x="158.216"
         y="506.71469" /></text>
    <flowRoot
       xml:space="preserve"
       id="flowRoot4351"
       style="font-style:normal;font-weight:normal;font-size:40px;line-height:125%;font-family:sans-serif;letter-spacing:0px;word-spacing:0px;fill:#000000;fill-opacity:1;stroke:none;stroke-width:1px;stroke-linecap:butt;stroke-linejoin:miter;stroke-opacity:1"
       transform="matrix(0.20752135,0,0,0.20752135,122.19197,529.62907)"><flowRegion
         id="flowRegion4353"><rect
           id="rect4355"
           width="22.911987"
           height="40.095978"
           x="899.29553"
           y="1260.6205" /></flowRegion><flowPara
         id="flowPara4357" /></flowRoot>    <flowRoot
       xml:space="preserve"
       id="flowRoot4359"
       style="font-style:normal;font-weight:normal;font-size:40px;line-height:125%;font-family:sans-serif;letter-spacing:0px;word-spacing:0px;fill:#000000;fill-opacity:1;stroke:none;stroke-width:1px;stroke-linecap:butt;stroke-linejoin:miter;stroke-opacity:1"
       transform="matrix(0.20752135,0,0,0.20752135,122.19197,529.62907)"><flowRegion
         id="flowRegion4361"><rect
           id="rect4363"
           width="1105.5034"
           height="1363.2633"
           x="143.19992"
           y="710.73279" /></flowRegion><flowPara
         id="flowPara4365" /></flowRoot>    <text
       xml:space="preserve"
       style="font-style:normal;font-weight:normal;font-size:8.30085373px;line-height:125%;font-family:sans-serif;letter-spacing:0px;word-spacing:0px;fill:#000000;fill-opacity:1;stroke:none;stroke-width:1px;stroke-linecap:butt;stroke-linejoin:miter;stroke-opacity:1"
       x="432.43784"
       y="455.60098"
       id="text4367"
       sodipodi:linespacing="125%"><tspan
         sodipodi:role="line"
         id="tspan4369"
         x="432.43784"
         y="455.60098" /></text>
    <text
       xml:space="preserve"
       style="font-style:normal;font-weight:normal;font-size:8.30085373px;line-height:125%;font-family:sans-serif;letter-spacing:0px;word-spacing:0px;fill:#000000;fill-opacity:1;stroke:none;stroke-width:1px;stroke-linecap:butt;stroke-linejoin:miter;stroke-opacity:1"
       x="286.22998"
       y="324.84598"
       id="text4371"
       sodipodi:linespacing="125%"><tspan
         sodipodi:role="line"
         id="tspan4373"
         x="286.22998"
         y="324.84598" /></text>
    <g
       id="g4195"
       transform="matrix(0.52871665,0,0,0.52871665,633.36053,201.41046)">
      <g
         id="g4375">
        <path
           style="fill:#e8d000;fill-opacity:1;fill-rule:evenodd;stroke:none;stroke-width:4.81878138px;stroke-linecap:butt;stroke-linejoin:miter;stroke-opacity:1"
           clip-path="none"
           d="m 541.37109,518.66602 22.49805,20.86718 22.49805,-20.86718 -44.9961,0 z m 61.79297,0 -30.89648,28.65625 46.77539,43.38281 46.77344,-43.38281 -30.89649,-28.65625 -31.75586,0 z m 48.55274,0 22.49804,20.86718 22.49805,-20.86718 -44.99609,0 z m 61.79101,0 -30.89648,28.65625 50.19922,46.55859 20.97461,-19.45508 c -8.55825,-18.05466 -18.07107,-36.64121 -28.59571,-55.75976 l -11.68164,0 z m -188.89258,0.0371 c -11.99893,21.79862 -22.67902,42.90476 -32.12695,63.32032 l 12.78516,11.85742 50.19922,-46.55859 -30.85743,-28.61915 z m 39.25391,36.40821 -50.19726,46.55859 46.77343,43.38281 50.19727,-46.55859 -46.77344,-43.38281 z m 110.3457,0.002 -46.77539,43.38086 50.19922,46.55859 46.77344,-43.38085 -50.19727,-46.5586 z m 84.63477,30.19531 -17.64258,16.36329 39.94727,37.05078 c -6.47402,-17.24167 -13.88875,-35.04629 -22.30469,-53.41407 z m -271.33789,7.67774 c -4.33839,9.715 -8.39816,19.27156 -12.17969,28.66601 l 21.54297,-19.98046 -9.36328,-8.68555 z m 131.53125,13.29687 -50.19922,46.5586 50.19922,46.56054 50.19726,-46.56054 -50.19726,-46.5586 z m -113.76953,3.17578 -39.19336,36.35157 c -1.82071,5.01124 -3.56305,9.97419 -5.22461,14.88867 l 41.35937,38.36133 49.83204,-46.21875 -46.77344,-43.38282 z m 227.53711,0.002 -46.77344,43.38086 49.83203,46.21875 46.77344,-43.38086 -49.83203,-46.21875 z m -55.17188,51.16992 -50.19922,46.56055 49.83203,46.21679 50.19922,-46.55859 -49.83203,-46.21875 z m -117.19336,0.002 -49.83203,46.2168 50.19922,46.56055 49.83008,-46.21875 -50.19727,-46.5586 z m 229.75586,3.61524 -45.93359,42.60156 49.98828,46.36523 15.58398,-14.45312 c -4.45163,-23.44987 -10.9174,-48.2848 -19.63867,-74.51367 z m -333.25976,8.40039 c -8.44921,26.63688 -14.55732,51.81447 -18.55469,75.51953 l 5.4414,5.04687 49.98829,-46.36523 -36.875,-34.20117 z m 278.92773,41.99023 -50.19922,46.56055 49.99024,46.36328 50.19726,-46.55859 -49.98828,-46.36524 z m -233.6543,0.002 -49.98828,46.36329 50.19922,46.55859 49.98828,-46.36328 -50.19922,-46.5586 z m 116.82618,0.33985 -49.83008,46.21875 49.83203,46.21875 49.83008,-46.21875 -49.83203,-46.21875 z m 193.14843,37.17969 -9.53515,8.84375 12.33593,11.4414 c -0.75686,-6.63437 -1.69421,-13.40036 -2.80078,-20.28515 z m -368.36133,16.63281 -9.41015,8.72851 c -2.47145,24.51827 -2.56653,47.28776 -0.62891,68.32422 l 13.68164,12.68946 46.55664,-43.18164 -50.19922,-46.56055 z m 350.42774,0 -50.19922,46.56055 46.55664,43.17968 26.48828,-24.56836 c 0.74113,-14.0884 0.60409,-28.90433 -0.51758,-44.46289 l -22.32812,-20.70898 z m -233.44336,0.19531 -49.99023,46.36524 49.83203,46.21679 49.98828,-46.36328 -49.83008,-46.21875 z m 116.45898,0 -49.83203,46.2168 49.99024,46.36523 49.83008,-46.21679 -49.98829,-46.36524 z m -58.23046,54.00781 -49.98829,46.36329 49.98829,46.36523 49.99023,-46.36523 -49.99023,-46.36329 z m 116.61914,0.14453 -49.83204,46.21876 46.55665,43.18164 49.83203,-46.21875 -46.55664,-43.18165 z m -233.23438,0.002 -46.55859,43.18164 49.83203,46.2168 46.55664,-43.18164 -49.83008,-46.2168 z m 313.33789,27.64258 -16.75195,15.53711 12.51953,11.61132 c 1.80321,-8.69238 3.22386,-17.74283 4.23242,-27.14843 z m -379.83203,12.6289 c 0.2603,1.69801 0.53623,3.38357 0.82422,5.05664 l 2.31445,-2.14648 -3.13867,-2.91016 z m 354.68164,10.69727 -49.83008,46.21875 38.90235,36.08203 c 12.38601,-18.66218 22.28477,-40.54929 28.85156,-65.67578 l -17.92383,-16.625 z m -343.14258,0.002 -8.11328,7.52539 c 5.77598,25.76341 14.95002,48.31876 26.6875,67.68164 l 31.25586,-28.98828 -49.83008,-46.21875 z m 113.1836,3.03711 -46.55664,43.18164 49.98828,46.36328 46.55664,-43.18164 -49.98828,-46.36328 z m 116.77539,0 -49.99024,46.36328 46.55664,43.18164 49.99024,-46.36523 -46.55664,-43.17969 z m -171.73047,50.96875 -33.35547,30.93555 c 13.6031,19.71881 30.0243,35.71825 48.22461,48.00193 l 35.11914,-32.57224 -49.98828,-46.36524 z m 226.68359,0 -49.98828,46.36524 40.13672,37.22654 c 18.89017,-11.4729 36.08582,-26.76535 50.5,-45.89061 l -40.64844,-37.70117 z m -113.34179,3.18555 -46.55664,43.18164 46.55664,43.17969 46.55664,-43.18164 -46.55664,-43.17969 z m -54.95508,50.96875 -33.49414,31.06638 c 21.27764,12.3826 44.58084,20.0185 68.39843,22.9239 l 11.65235,-10.8086 -46.55664,-43.18168 z m 109.91015,0 -46.55664,43.18168 12.75196,11.8281 c 24.83498,-1.4695 49.35772,-8.025 71.88281,-19.6934 l -38.07813,-35.31638 z m -54.95507,50.97068 -4.57422,4.2422 c 3.08205,0.1112 6.16706,0.1408 9.25195,0.096 l -4.67773,-4.3379 z"
           transform="translate(0,-197.63788)"
           id="path6713-4"
           inkscape:connector-curvature="0" />
        <path
           style="fill:#00a400;fill-opacity:1;fill-rule:evenodd;stroke:none;stroke-width:1px;stroke-linecap:butt;stroke-linejoin:miter;stroke-opacity:1"
           d="m 624.91043,14.75263 -54.68992,204.19012 -118.50814,-80.21721 72.92303,182.30289 100.27503,0 100.27973,0 72.92303,-182.30289 -118.50814,80.21721 -54.69462,-204.19012 z"
           id="path6948"
           inkscape:connector-curvature="0" />
      </g>
      <g
         transform="translate(273.2947,0)"
         id="g4185">
        <text
           xml:space="preserve"
           style="font-style:normal;font-weight:normal;font-size:265.98458862px;line-height:100%;font-family:sans-serif;text-align:start;letter-spacing:0px;word-spacing:0px;text-anchor:start;fill:#00a400;fill-opacity:1;stroke:none;stroke-width:1px;stroke-linecap:butt;stroke-linejoin:miter;stroke-opacity:1"
           x="600.4422"
           y="521.58081"
           id="text4169"
           sodipodi:linespacing="100%"><tspan
             sodipodi:role="line"
             x="600.4422"
             y="521.58081"
             id="tspan4173"
             style="font-style:normal;font-variant:normal;font-weight:normal;font-stretch:normal;line-height:100%;font-family:Montserrat;-inkscape-font-specification:Montserrat;fill:#00a400;fill-opacity:1">Pine</tspan><tspan
             sodipodi:role="line"
             x="600.4422"
             y="787.56543"
             style="font-style:normal;font-variant:normal;font-weight:normal;font-stretch:normal;line-height:100%;font-family:Montserrat;-inkscape-font-specification:Montserrat;fill:#00a400;fill-opacity:1"
             id="tspan4183" /></text>
        <text
           xml:space="preserve"
           style="font-style:normal;font-weight:normal;font-size:40px;line-height:100%;font-family:sans-serif;text-align:start;letter-spacing:0px;word-spacing:0px;text-anchor:start;fill:#e8d000;fill-opacity:1;stroke:none;stroke-width:1px;stroke-linecap:butt;stroke-linejoin:miter;stroke-opacity:1"
           x="600.4422"
           y="521.58081"
           id="text4175"
           sodipodi:linespacing="100%"><tspan
             sodipodi:role="line"
             id="tspan4177"
             x="600.4422"
             y="521.58081"
             style="font-style:normal;font-variant:normal;font-weight:normal;font-stretch:normal;font-size:265.98458862px;line-height:100%;font-family:Montserrat;-inkscape-font-specification:Montserrat;fill:#e8d000;fill-opacity:1" /><tspan
             sodipodi:role="line"
             x="600.4422"
             y="787.56543"
             id="tspan4179"
             style="font-style:normal;font-variant:normal;font-weight:normal;font-stretch:normal;font-size:265.98458862px;line-height:100%;font-family:Montserrat;-inkscape-font-specification:Montserrat;fill:#e8d000;fill-opacity:1">Designs</tspan></text>
      </g>
    </g>
  </g>
</svg>
