<?xml version="1.0" encoding="UTF-8" standalone="no"?>
<svg
   xmlns:dc="http://purl.org/dc/elements/1.1/"
   xmlns:cc="http://creativecommons.org/ns#"
   xmlns:rdf="http://www.w3.org/1999/02/22-rdf-syntax-ns#"
   xmlns:svg="http://www.w3.org/2000/svg"
   xmlns="http://www.w3.org/2000/svg"
   version="1.1"
   id="svg4388"
   viewBox="0 0 1250 1250"
   height="1250"
   width="1250">
  <defs
     id="defs4390" />
  <metadata
     id="metadata4393">
    <rdf:RDF>
      <cc:Work
         rdf:about="">
        <dc:format>image/svg+xml</dc:format>
        <dc:type
           rdf:resource="http://purl.org/dc/dcmitype/StillImage" />
        <dc:title></dc:title>
      </cc:Work>
    </rdf:RDF>
  </metadata>
  <g
     transform="translate(0,197.63788)"
     id="layer1">
    <rect
       y="-197.63788"
       x="0"
       height="1250"
       width="1250"
       id="rect5031"
       style="opacity:1;fill:#ffffff;fill-opacity:1;fill-rule:nonzero;stroke:none;stroke-width:5;stroke-linecap:round;stroke-linejoin:round;stroke-miterlimit:4;stroke-dasharray:none;stroke-opacity:1" />
    <text
       id="text4343-0"
       y="828.28833"
       x="-145.98349"
       style="font-style:normal;font-weight:normal;font-size:19.93603706px;line-height:125%;font-family:sans-serif;letter-spacing:0px;word-spacing:0px;fill:#000000;fill-opacity:1;stroke:none;stroke-width:1px;stroke-linecap:butt;stroke-linejoin:miter;stroke-opacity:1"
       xml:space="preserve"><tspan
         y="828.28833"
         x="-145.98349"
         id="tspan4345-1" /></text>
    <text
       id="text4347-8"
       y="587.89459"
       x="-463.2002"
       style="font-style:normal;font-weight:normal;font-size:515.92950439px;line-height:125%;font-family:sans-serif;letter-spacing:0px;word-spacing:0px;fill:#000000;fill-opacity:1;stroke:none;stroke-width:1px;stroke-linecap:butt;stroke-linejoin:miter;stroke-opacity:1"
       xml:space="preserve"><tspan
         y="587.89459"
         x="-463.2002"
         id="tspan4349-1" /></text>
    <flowRoot
       style="font-style:normal;font-weight:normal;font-size:19.93603706px;line-height:125%;font-family:sans-serif;letter-spacing:0px;word-spacing:0px;fill:#000000;fill-opacity:1;stroke:none;stroke-width:1px;stroke-linecap:butt;stroke-linejoin:miter;stroke-opacity:1"
       id="flowRoot4351-0"
       xml:space="preserve"><flowRegion
         id="flowRegion4353-6"><rect
           y="1271.2222"
           x="-101.50885"
           height="19.983871"
           width="11.419355"
           id="rect4355-0" /></flowRegion><flowPara
         id="flowPara4357-9" /></flowRoot>    <flowRoot
       style="font-style:normal;font-weight:normal;font-size:19.93603706px;line-height:125%;font-family:sans-serif;letter-spacing:0px;word-spacing:0px;fill:#000000;fill-opacity:1;stroke:none;stroke-width:1px;stroke-linecap:butt;stroke-linejoin:miter;stroke-opacity:1"
       id="flowRoot4359-9"
       xml:space="preserve"><flowRegion
         id="flowRegion4361-5"><rect
           y="997.15765"
           x="-478.3476"
           height="679.45166"
           width="550.98395"
           id="rect4363-9" /></flowRegion><flowPara
         id="flowPara4365-4" /></flowRoot>    <text
       id="text4367-6"
       y="465.13556"
       x="195.39427"
       style="font-style:normal;font-weight:normal;font-size:19.93603706px;line-height:125%;font-family:sans-serif;letter-spacing:0px;word-spacing:0px;fill:#000000;fill-opacity:1;stroke:none;stroke-width:1px;stroke-linecap:butt;stroke-linejoin:miter;stroke-opacity:1"
       xml:space="preserve"><tspan
         y="465.13556"
         x="195.39427"
         id="tspan4369-9" /></text>
    <text
       id="text4371-1"
       y="151.1033"
       x="-155.75093"
       style="font-style:normal;font-weight:normal;font-size:19.93603706px;line-height:125%;font-family:sans-serif;letter-spacing:0px;word-spacing:0px;fill:#000000;fill-opacity:1;stroke:none;stroke-width:1px;stroke-linecap:butt;stroke-linejoin:miter;stroke-opacity:1"
       xml:space="preserve"><tspan
         y="151.1033"
         x="-155.75093"
         id="tspan4373-5" /></text>
    <g
       id="g4375">
      <path
         style="fill:#e8d000;fill-opacity:1;fill-rule:evenodd;stroke:none;stroke-width:4.81878138px;stroke-linecap:butt;stroke-linejoin:miter;stroke-opacity:1"
         clip-path="none"
         d="M 541.37109 518.66602 L 563.86914 539.5332 L 586.36719 518.66602 L 541.37109 518.66602 z M 603.16406 518.66602 L 572.26758 547.32227 L 619.04297 590.70508 L 665.81641 547.32227 L 634.91992 518.66602 L 603.16406 518.66602 z M 651.7168 518.66602 L 674.21484 539.5332 L 696.71289 518.66602 L 651.7168 518.66602 z M 713.50781 518.66602 L 682.61133 547.32227 L 732.81055 593.88086 L 753.78516 574.42578 C 745.22691 556.37112 735.71409 537.78457 725.18945 518.66602 L 713.50781 518.66602 z M 524.61523 518.70312 C 512.6163 540.50174 501.93621 561.60788 492.48828 582.02344 L 505.27344 593.88086 L 555.47266 547.32227 L 524.61523 518.70312 z M 563.86914 555.11133 L 513.67188 601.66992 L 560.44531 645.05273 L 610.64258 598.49414 L 563.86914 555.11133 z M 674.21484 555.11328 L 627.43945 598.49414 L 677.63867 645.05273 L 724.41211 601.67188 L 674.21484 555.11328 z M 758.84961 585.30859 L 741.20703 601.67188 L 781.1543 638.72266 C 774.68028 621.48099 767.26555 603.67637 758.84961 585.30859 z M 487.51172 592.98633 C 483.17333 602.70133 479.11356 612.25789 475.33203 621.65234 L 496.875 601.67188 L 487.51172 592.98633 z M 619.04297 606.2832 L 568.84375 652.8418 L 619.04297 699.40234 L 669.24023 652.8418 L 619.04297 606.2832 z M 505.27344 609.45898 L 466.08008 645.81055 C 464.25937 650.82179 462.51703 655.78474 460.85547 660.69922 L 502.21484 699.06055 L 552.04688 652.8418 L 505.27344 609.45898 z M 732.81055 609.46094 L 686.03711 652.8418 L 735.86914 699.06055 L 782.64258 655.67969 L 732.81055 609.46094 z M 677.63867 660.63086 L 627.43945 707.19141 L 677.27148 753.4082 L 727.4707 706.84961 L 677.63867 660.63086 z M 560.44531 660.63281 L 510.61328 706.84961 L 560.8125 753.41016 L 610.64258 707.19141 L 560.44531 660.63281 z M 790.20117 664.24805 L 744.26758 706.84961 L 794.25586 753.21484 L 809.83984 738.76172 C 805.38821 715.31185 798.92244 690.47692 790.20117 664.24805 z M 456.94141 672.64844 C 448.4922 699.28532 442.38409 724.46291 438.38672 748.16797 L 443.82812 753.21484 L 493.81641 706.84961 L 456.94141 672.64844 z M 735.86914 714.63867 L 685.66992 761.19922 L 735.66016 807.5625 L 785.85742 761.00391 L 735.86914 714.63867 z M 502.21484 714.64062 L 452.22656 761.00391 L 502.42578 807.5625 L 552.41406 761.19922 L 502.21484 714.64062 z M 619.04102 714.98047 L 569.21094 761.19922 L 619.04297 807.41797 L 668.87305 761.19922 L 619.04102 714.98047 z M 812.18945 752.16016 L 802.6543 761.00391 L 814.99023 772.44531 C 814.23337 765.81094 813.29602 759.04495 812.18945 752.16016 z M 443.82812 768.79297 L 434.41797 777.52148 C 431.94652 802.03975 431.85144 824.80924 433.78906 845.8457 L 447.4707 858.53516 L 494.02734 815.35352 L 443.82812 768.79297 z M 794.25586 768.79297 L 744.05664 815.35352 L 790.61328 858.5332 L 817.10156 833.96484 C 817.84269 819.87644 817.70565 805.06051 816.58398 789.50195 L 794.25586 768.79297 z M 560.8125 768.98828 L 510.82227 815.35352 L 560.6543 861.57031 L 610.64258 815.20703 L 560.8125 768.98828 z M 677.27148 768.98828 L 627.43945 815.20508 L 677.42969 861.57031 L 727.25977 815.35352 L 677.27148 768.98828 z M 619.04102 822.99609 L 569.05273 869.35938 L 619.04102 915.72461 L 669.03125 869.35938 L 619.04102 822.99609 z M 735.66016 823.14062 L 685.82812 869.35938 L 732.38477 912.54102 L 782.2168 866.32227 L 735.66016 823.14062 z M 502.42578 823.14258 L 455.86719 866.32422 L 505.69922 912.54102 L 552.25586 869.35938 L 502.42578 823.14258 z M 815.76367 850.78516 L 799.01172 866.32227 L 811.53125 877.93359 C 813.33446 869.24121 814.75511 860.19076 815.76367 850.78516 z M 435.93164 863.41406 C 436.19194 865.11207 436.46787 866.79763 436.75586 868.4707 L 439.07031 866.32422 L 435.93164 863.41406 z M 790.61328 874.11133 L 740.7832 920.33008 L 779.68555 956.41211 C 792.07156 937.74993 801.97032 915.86282 808.53711 890.73633 L 790.61328 874.11133 z M 447.4707 874.11328 L 439.35742 881.63867 C 445.1334 907.40208 454.30744 929.95743 466.04492 949.32031 L 497.30078 920.33203 L 447.4707 874.11328 z M 560.6543 877.15039 L 514.09766 920.33203 L 564.08594 966.69531 L 610.64258 923.51367 L 560.6543 877.15039 z M 677.42969 877.15039 L 627.43945 923.51367 L 673.99609 966.69531 L 723.98633 920.33008 L 677.42969 877.15039 z M 505.69922 928.11914 L 472.34375 959.05469 C 485.94685 978.7735 502.36805 994.77294 520.56836 1007.0566 L 555.6875 974.48438 L 505.69922 928.11914 z M 732.38281 928.11914 L 682.39453 974.48438 L 722.53125 1011.7109 C 741.42142 1000.238 758.61707 984.94557 773.03125 965.82031 L 732.38281 928.11914 z M 619.04102 931.30469 L 572.48438 974.48633 L 619.04102 1017.666 L 665.59766 974.48438 L 619.04102 931.30469 z M 564.08594 982.27344 L 530.5918 1013.3398 C 551.86944 1025.7224 575.17264 1033.3583 598.99023 1036.2637 L 610.64258 1025.4551 L 564.08594 982.27344 z M 673.99609 982.27344 L 627.43945 1025.4551 L 640.19141 1037.2832 C 665.02639 1035.8137 689.54913 1029.2582 712.07422 1017.5898 L 673.99609 982.27344 z M 619.04102 1033.2441 L 614.4668 1037.4863 C 617.54885 1037.5975 620.63386 1037.6271 623.71875 1037.582 L 619.04102 1033.2441 z "
         transform="translate(0,-197.63788)"
         id="path6713-4" />
      <path
         style="fill:#00a400;fill-opacity:1;fill-rule:evenodd;stroke:none;stroke-width:1px;stroke-linecap:butt;stroke-linejoin:miter;stroke-opacity:1"
         d="m 624.91043,14.75263 -54.68992,204.19012 -118.50814,-80.21721 72.92303,182.30289 100.27503,0 100.27973,0 72.92303,-182.30289 -118.50814,80.21721 -54.69462,-204.19012 z"
         id="path6948" />
    </g>
    <text
       id="text4343"
       y="606.80847"
       x="290.29691"
       style="font-style:normal;font-weight:normal;font-size:8.30085373px;line-height:125%;font-family:sans-serif;letter-spacing:0px;word-spacing:0px;fill:#000000;fill-opacity:1;stroke:none;stroke-width:1px;stroke-linecap:butt;stroke-linejoin:miter;stroke-opacity:1"
       xml:space="preserve"><tspan
         y="606.80847"
         x="290.29691"
         id="tspan4345" /></text>
    <text
       id="text4347"
       y="506.71469"
       x="158.216"
       style="font-style:normal;font-weight:normal;font-size:214.81980896px;line-height:125%;font-family:sans-serif;letter-spacing:0px;word-spacing:0px;fill:#000000;fill-opacity:1;stroke:none;stroke-width:1px;stroke-linecap:butt;stroke-linejoin:miter;stroke-opacity:1"
       xml:space="preserve"><tspan
         y="506.71469"
         x="158.216"
         id="tspan4349" /></text>
    <flowRoot
       transform="matrix(0.20752135,0,0,0.20752135,122.19197,529.62907)"
       style="font-style:normal;font-weight:normal;font-size:40px;line-height:125%;font-family:sans-serif;letter-spacing:0px;word-spacing:0px;fill:#000000;fill-opacity:1;stroke:none;stroke-width:1px;stroke-linecap:butt;stroke-linejoin:miter;stroke-opacity:1"
       id="flowRoot4351"
       xml:space="preserve"><flowRegion
         id="flowRegion4353"><rect
           y="1260.6205"
           x="899.29553"
           height="40.095978"
           width="22.911987"
           id="rect4355" /></flowRegion><flowPara
         id="flowPara4357" /></flowRoot>    <flowRoot
       transform="matrix(0.20752135,0,0,0.20752135,122.19197,529.62907)"
       style="font-style:normal;font-weight:normal;font-size:40px;line-height:125%;font-family:sans-serif;letter-spacing:0px;word-spacing:0px;fill:#000000;fill-opacity:1;stroke:none;stroke-width:1px;stroke-linecap:butt;stroke-linejoin:miter;stroke-opacity:1"
       id="flowRoot4359"
       xml:space="preserve"><flowRegion
         id="flowRegion4361"><rect
           y="710.73279"
           x="143.19992"
           height="1363.2633"
           width="1105.5034"
           id="rect4363" /></flowRegion><flowPara
         id="flowPara4365" /></flowRoot>    <text
       id="text4367"
       y="455.60098"
       x="432.43784"
       style="font-style:normal;font-weight:normal;font-size:8.30085373px;line-height:125%;font-family:sans-serif;letter-spacing:0px;word-spacing:0px;fill:#000000;fill-opacity:1;stroke:none;stroke-width:1px;stroke-linecap:butt;stroke-linejoin:miter;stroke-opacity:1"
       xml:space="preserve"><tspan
         y="455.60098"
         x="432.43784"
         id="tspan4369" /></text>
    <text
       id="text4371"
       y="324.84598"
       x="286.22998"
       style="font-style:normal;font-weight:normal;font-size:8.30085373px;line-height:125%;font-family:sans-serif;letter-spacing:0px;word-spacing:0px;fill:#000000;fill-opacity:1;stroke:none;stroke-width:1px;stroke-linecap:butt;stroke-linejoin:miter;stroke-opacity:1"
       xml:space="preserve"><tspan
         y="324.84598"
         x="286.22998"
         id="tspan4373" /></text>
  </g>
</svg>
